<?xml version="1.0" encoding="UTF-8"?>
<svg width="50px" height="32px" viewBox="0 0 50 32" version="1.1" xmlns="http://www.w3.org/2000/svg" xmlns:xlink="http://www.w3.org/1999/xlink">
    <title>15D0F76A-C68C-44D8-B81F-E31516C1E072</title>
    <defs>
        <rect id="path-1" x="0" y="0" width="48" height="30" rx="4"></rect>
    </defs>
    <g id="Page-1" stroke="none" stroke-width="1" fill="none" fill-rule="evenodd">
        <g id="Product-v3-logotypy" transform="translate(-1017.000000, -2041.000000)">
            <g id="Payment/Klarna-Copy-2" transform="translate(1017.000000, 2041.000000)">
                <g id="Payment/MC" transform="translate(1.000000, 1.000000)">
                    <mask id="mask-2" fill="white">
                        <use xlink:href="#path-1"></use>
                    </mask>
                    <rect stroke="#EDEDED" x="-0.5" y="-0.5" width="49" height="31" rx="4"></rect>
                </g>
                <g id="mc_vrt_pos" transform="translate(10.000000, 4.000000)" fill-rule="nonzero">
                    <path d="M5.64004945,23.8675634 L5.64004945,22.2783254 C5.65887386,22.0079418 5.55990133,21.7425692 5.36838162,21.5499093 C5.1768619,21.3572493 4.91131577,21.255933 4.63948897,21.271808 C4.28126547,21.2484324 3.93865211,21.4209749 3.74537109,21.7220921 C3.56915427,21.4299529 3.24649545,21.2571752 2.90447452,21.271808 C2.60667934,21.2568233 2.32318122,21.3999309 2.15937628,21.6479276 L2.15937628,21.3353775 L1.60587474,21.3353775 L1.60587474,23.8675634 L2.16469841,23.8675634 L2.16469841,22.4743314 C2.14063131,22.2990094 2.19643897,22.1221449 2.31689198,21.9920029 C2.43734498,21.8618608 2.60987045,21.7920253 2.78738765,21.801554 C3.15461464,21.801554 3.3408892,22.0399397 3.3408892,22.469034 L3.3408892,23.8781583 L3.89971287,23.8781583 L3.89971287,22.4743314 C3.87663334,22.2992088 3.93278225,22.1229174 4.05301193,21.9930166 C4.1732416,21.8631158 4.34516535,21.7929887 4.52240211,21.801554 C4.90027335,21.801554 5.08122578,22.0399397 5.08122578,22.469034 L5.08122578,23.8781583 L5.64004945,23.8675634 Z M13.9079788,21.3353775 L12.9978945,21.3353775 L12.9978945,20.5672458 L12.4390708,20.5672458 L12.4390708,21.3353775 L11.9334685,21.3353775 L11.9334685,21.8386362 L12.4497151,21.8386362 L12.4497151,23.0040774 C12.4497151,23.5920955 12.6785667,23.9417352 13.3331887,23.9417352 C13.5777562,23.9425456 13.8175844,23.8746032 14.0250656,23.7457218 L13.8654017,23.2742479 C13.7169684,23.3623737 13.5485037,23.4115853 13.3757657,23.4172793 C13.1096592,23.4172793 13.0085388,23.2477606 13.0085388,22.9934825 L13.0085388,21.8386362 L13.9133009,21.8386362 L13.9079788,21.3353775 Z M18.6287083,21.271808 C18.3537983,21.2637605 18.0964907,21.4060465 17.9581199,21.6426302 L17.9581199,21.3353775 L17.4099405,21.3353775 L17.4099405,23.8675634 L17.963442,23.8675634 L17.963442,22.4478441 C17.963442,22.0293448 18.1443944,21.7962565 18.495655,21.7962565 C18.6140416,21.7946447 18.7315891,21.8162451 18.8415935,21.8598261 L19.0119017,21.33008 C18.8854936,21.2850686 18.7523161,21.261781 18.618064,21.2612131 L18.6287083,21.271808 Z M11.4917316,21.536681 C11.1784245,21.3512638 10.8182027,21.2593274 10.4539162,21.271808 C9.80993849,21.271808 9.3894902,21.5790607 9.3894902,22.0823194 C9.3894902,22.4955213 9.69817376,22.7497993 10.2676417,22.8292612 L10.5337482,22.8663435 C10.8371096,22.9087231 10.9808071,22.988185 10.9808071,23.1312165 C10.9808071,23.3272225 10.7785662,23.4384692 10.4006949,23.4384692 C10.0967487,23.4472264 9.79868305,23.3539296 9.55447624,23.1735962 L9.28836973,23.6026904 C9.61078806,23.8267705 9.99696393,23.9419005 10.3900507,23.9311329 C11.1245047,23.9311329 11.5502751,23.586798 11.5502751,23.1047292 C11.5502751,22.6226603 11.2149809,22.4266543 10.6614793,22.3471924 L10.3953728,22.3101102 C10.155877,22.2783254 9.96428027,22.2306483 9.96428027,22.0611295 C9.96428027,21.8916108 10.1452327,21.7644718 10.4485941,21.7644718 C10.7289841,21.7677138 11.0038509,21.8424958 11.2469137,21.9816676 L11.4917316,21.536681 Z M26.3165254,21.271808 C26.0416154,21.2637605 25.7843078,21.4060465 25.645937,21.6426302 L25.645937,21.3353775 L25.0977576,21.3353775 L25.0977576,23.8675634 L25.6512591,23.8675634 L25.6512591,22.4478441 C25.6512591,22.0293448 25.8322115,21.7962565 26.1834721,21.7962565 C26.3018587,21.7946447 26.4194062,21.8162451 26.5294106,21.8598261 L26.6997188,21.33008 C26.5733107,21.2850686 26.4401332,21.261781 26.3058811,21.2612131 L26.3165254,21.271808 Z M19.1848709,22.596173 C19.1715596,22.9559857 19.3111929,23.3047249 19.5694969,23.5567902 C19.8278009,23.8088555 20.1808602,23.9409093 20.5420141,23.920538 C20.8743488,23.937368 21.2009561,23.8296336 21.4574205,23.6185828 L21.191314,23.1735962 C20.9999757,23.318829 20.7666566,23.3987187 20.5260477,23.4013869 C20.1017943,23.3672192 19.7749856,23.0145424 19.7749856,22.5908755 C19.7749856,22.1672087 20.1017943,21.8145319 20.5260477,21.7803642 C20.7666566,21.7830324 20.9999757,21.8629221 21.191314,22.0081549 L21.4574205,21.5631683 C21.2009561,21.3521175 20.8743488,21.2443831 20.5420141,21.2612131 C20.1808602,21.2408418 19.8278009,21.3728956 19.5694969,21.6249609 C19.3111929,21.8770262 19.1715596,22.2257653 19.1848709,22.5855781 L19.1848709,22.596173 Z M24.3686257,22.596173 L24.3686257,21.3353775 L23.8151242,21.3353775 L23.8151242,21.6426302 C23.6244332,21.398404 23.3273446,21.2604054 23.0168047,21.271808 C22.2819718,21.271808 21.6862721,21.8647464 21.6862721,22.596173 C21.6862721,23.3275996 22.2819718,23.920538 23.0168047,23.920538 C23.3273446,23.9319406 23.6244332,23.793942 23.8151242,23.5497158 L23.8151242,23.8569685 L24.3686257,23.8569685 L24.3686257,22.596173 Z M22.3089613,22.596173 C22.3335749,22.1804995 22.6874824,21.8606494 23.105522,21.8762674 C23.5235617,21.8918854 23.852385,22.2372424 23.8456242,22.6535829 C23.8388635,23.0699234 23.4989986,23.4045222 23.0806702,23.4066844 C22.8676624,23.4093671 22.6632088,23.323376 22.516674,23.1694733 C22.3701393,23.0155705 22.2948416,22.8077442 22.3089613,22.596173 L22.3089613,22.596173 Z M15.6296879,21.271808 C14.8948551,21.282048 14.3074951,21.8832875 14.3177828,22.6147141 C14.3280705,23.3461407 14.93211,23.930778 15.6669428,23.920538 C16.0498007,23.9400986 16.4263058,23.8173813 16.7233857,23.5762031 L16.4572791,23.1682987 C16.2471513,23.3360371 15.9868299,23.4292438 15.717503,23.4331717 C15.3370682,23.4657379 14.9997021,23.1909905 14.9564384,22.8133689 L16.8457947,22.8133689 C16.8457947,22.7445019 16.8457947,22.6756349 16.8457947,22.6014705 C16.8457947,21.8068515 16.3508365,21.2771054 15.6376711,21.2771054 L15.6296879,21.271808 Z M15.6296879,21.7644718 C15.7969632,21.760922 15.9588004,21.8236788 16.0795779,21.9389287 C16.2003554,22.0541787 16.2701738,22.2124756 16.2736657,22.3789771 L14.9431331,22.3789771 C14.9631785,22.0253249 15.2633865,21.7523902 15.6190436,21.7644718 L15.6296879,21.7644718 Z M29.4964982,22.6014705 L29.4964982,20.3182652 L28.9642852,20.3182652 L28.9642852,21.6426302 C28.7735942,21.398404 28.4765056,21.2604054 28.1659657,21.271808 C27.4311328,21.271808 26.8354331,21.8647464 26.8354331,22.596173 C26.8354331,23.3275996 27.4311328,23.920538 28.1659657,23.920538 C28.4765056,23.9319406 28.7735942,23.793942 28.9642852,23.5497158 L28.9642852,23.8569685 L29.4964982,23.8569685 L29.4964982,22.6014705 Z M30.4198878,23.4993899 C30.4544851,23.498968 30.488833,23.505266 30.5210083,23.5179311 C30.5515687,23.5303441 30.5795423,23.5483079 30.6035013,23.5709057 C30.6268839,23.5937434 30.6458289,23.6206823 30.6593837,23.6503676 C30.6866226,23.7128901 30.6866226,23.783851 30.6593837,23.8463736 C30.6458289,23.8760589 30.6268839,23.9029978 30.6035013,23.9258355 C30.5795423,23.9484332 30.5515687,23.9663971 30.5210083,23.9788101 C30.4891506,23.9928021 30.454709,24.0000193 30.4198878,24 C30.3169178,23.9992274 30.2236376,23.9393922 30.1803919,23.8463736 C30.1534684,23.7837863 30.1534684,23.7129549 30.1803919,23.6503676 C30.1939467,23.6206823 30.2128917,23.5937434 30.2362743,23.5709057 C30.2602333,23.5483079 30.2882069,23.5303441 30.3187673,23.5179311 C30.3534277,23.5042075 30.3905995,23.4978906 30.427871,23.4993899 L30.4198878,23.4993899 Z M30.4198878,23.9470253 C30.4464478,23.9471859 30.4727433,23.9417707 30.4970587,23.9311329 C30.5199535,23.9209585 30.5407173,23.9065811 30.5582632,23.8887533 C30.6272638,23.8138188 30.6272638,23.6988147 30.5582632,23.6238803 C30.5407591,23.6060032 30.5199853,23.5916189 30.4970587,23.5815006 C30.4727193,23.5709378 30.4464399,23.5655259 30.4198878,23.5656073 C30.3933587,23.5657477 30.3671237,23.5711505 30.3427169,23.5815006 C30.3188085,23.5912585 30.2970962,23.6056663 30.2788514,23.6238803 C30.2098507,23.6988147 30.2098507,23.8138188 30.2788514,23.8887533 C30.297141,23.9069128 30.3188417,23.9213129 30.3427169,23.9311329 C30.3695643,23.942657 30.398653,23.9480859 30.427871,23.9470253 L30.4198878,23.9470253 Z M30.4358542,23.6318264 C30.4606956,23.6306273 30.4851746,23.6381244 30.5050419,23.6530163 C30.5215677,23.6666297 30.5304847,23.6873395 30.5289915,23.7086396 C30.529764,23.7264272 30.5230069,23.7437221 30.510364,23.7563168 C30.49494,23.7702612 30.4752637,23.7786549 30.4544817,23.7801553 L30.5316525,23.8675634 L30.470448,23.8675634 L30.3985993,23.7801553 L30.3746497,23.7801553 L30.3746497,23.8675634 L30.3240895,23.8675634 L30.3240895,23.6344752 L30.4358542,23.6318264 Z M30.3773108,23.6768549 L30.3773108,23.7404244 L30.4358542,23.7404244 C30.4462719,23.7435159 30.4573693,23.7435159 30.467787,23.7404244 C30.4715824,23.7329272 30.4715824,23.724083 30.467787,23.7165858 C30.4715824,23.7090886 30.4715824,23.7002444 30.467787,23.6927472 C30.4573693,23.6896557 30.4462719,23.6896557 30.4358542,23.6927472 L30.3773108,23.6768549 Z M27.4501391,22.6014705 C27.4747527,22.1857969 27.8286602,21.8659469 28.2466998,21.8815649 C28.6647395,21.8971829 28.9935628,22.2425398 28.986802,22.6588803 C28.9800413,23.0752208 28.6401764,23.4098197 28.221848,23.4119819 C28.0088402,23.4146646 27.8043866,23.3286734 27.6578518,23.1747707 C27.5113171,23.020868 27.4360194,22.8130416 27.4501391,22.6014705 L27.4501391,22.6014705 Z M8.76147883,22.6014705 L8.76147883,21.3353775 L8.20797729,21.3353775 L8.20797729,21.6426302 C8.01728626,21.398404 7.72019774,21.2604054 7.40965776,21.271808 C6.67482492,21.271808 6.0791252,21.8647464 6.0791252,22.596173 C6.0791252,23.3275996 6.67482492,23.920538 7.40965776,23.920538 C7.72019774,23.9319406 8.01728626,23.793942 8.20797729,23.5497158 L8.20797729,23.8569685 L8.76147883,23.8569685 L8.76147883,22.6014705 Z M6.70181444,22.6014705 C6.72642796,22.1857969 7.08033549,21.8659469 7.49837515,21.8815649 C7.9164148,21.8971829 8.24523812,22.2425398 8.23847734,22.6588803 C8.23171655,23.0752208 7.8918517,23.4098197 7.47352332,23.4119819 C7.2595975,23.4161622 7.05372058,23.3308266 6.90600559,23.176747 C6.75829061,23.0226673 6.68228602,22.8139757 6.69649231,22.6014705 L6.70181444,22.6014705 Z" id="Shape" fill="#231F20"></path>
                    <g id="_Group_">
                        <rect id="Rectangle" fill="#FF5F00" x="11.3081181" y="2.03937917" width="8.38235511" height="14.9944607"></rect>
                        <path d="M11.8403312,9.53793391 C11.8371971,6.61148248 13.1865224,3.84622209 15.4992957,2.03937917 C11.5715078,-1.03313395 5.93104685,-0.585595847 2.54187722,3.06747574 C-0.847292408,6.72054733 -0.847292408,12.3526718 2.54187722,16.0057434 C5.93104685,19.6588149 11.5715078,20.1063531 15.4992957,17.0338399 C13.1872582,15.2275706 11.8380153,12.4634559 11.8403312,9.53793391 L11.8403312,9.53793391 Z" id="_Path_" fill="#EB001B"></path>
                        <path d="M31,9.53793391 C31,13.1887793 28.9055877,16.5190991 25.6064881,18.1144937 C22.3073886,19.7098883 18.3827167,19.2902652 15.4992957,17.0338399 C17.8103244,15.2260371 19.1596688,12.4622899 19.1596688,9.53660955 C19.1596688,6.61092922 17.8103244,3.84718197 15.4992957,2.03937917 C18.3827167,-0.217046087 22.3073886,-0.636669182 25.6064881,0.958725427 C28.9055877,2.55412004 31,5.88443982 31,9.53528518 L31,9.53793391 Z" id="Path" fill="#F79E1B"></path>
                        <path d="M30.0874017,15.4517889 L30.0874017,15.1385813 L30.2143048,15.1385813 L30.2143048,15.0737797 L29.8929969,15.0737797 L29.8929969,15.1385813 L30.0307003,15.1385813 L30.0307003,15.4517889 L30.0874017,15.4517889 Z M30.7111169,15.4517889 L30.7111169,15.0737797 L30.6139145,15.0737797 L30.5005118,15.3437863 L30.387109,15.0737797 L30.3007069,15.0737797 L30.3007069,15.4517889 L30.3709086,15.4517889 L30.3709086,15.168282 L30.4762112,15.413988 L30.5491129,15.413988 L30.6544155,15.168282 L30.6544155,15.454489 L30.7111169,15.4517889 Z" id="Shape" fill="#F79E1B"></path>
                    </g>
                </g>
            </g>
        </g>
    </g>
</svg>